<mxfile host="app.diagrams.net" agent="Mozilla/5.0 (Windows NT 10.0; Win64; x64) AppleWebKit/537.36 (KHTML, like Gecko) Chrome/130.0.0.0 Safari/537.36 Edg/130.0.0.0" version="24.8.0">
  <diagram name="第 1 页" id="YRpwSYur-lv9RpEFBQh9">
    <mxGraphModel dx="1155" dy="630" grid="1" gridSize="10" guides="1" tooltips="1" connect="1" arrows="1" fold="1" page="1" pageScale="1" pageWidth="4681" pageHeight="3300" math="0" shadow="0">
      <root>
        <mxCell id="0" />
        <mxCell id="1" parent="0" />
        <mxCell id="w9ujz4ej-WEvfIKI_Xtr-1" value="&lt;font style=&quot;font-size: 18px;&quot;&gt;register_user&lt;/font&gt;" style="rounded=0;whiteSpace=wrap;html=1;strokeColor=#007FFF;fontColor=#007FFF;" parent="1" vertex="1">
          <mxGeometry x="100" y="440" width="120" height="60" as="geometry" />
        </mxCell>
        <mxCell id="w9ujz4ej-WEvfIKI_Xtr-4" value="&lt;font style=&quot;font-size: 18px;&quot;&gt;get_user_type&lt;/font&gt;" style="rounded=0;whiteSpace=wrap;html=1;strokeColor=#007FFF;fontColor=#007FFF;" parent="1" vertex="1">
          <mxGeometry x="100" y="540" width="120" height="60" as="geometry" />
        </mxCell>
        <mxCell id="w9ujz4ej-WEvfIKI_Xtr-68" style="edgeStyle=orthogonalEdgeStyle;rounded=0;orthogonalLoop=1;jettySize=auto;html=1;strokeColor=#007FFF;" parent="1" source="w9ujz4ej-WEvfIKI_Xtr-5" edge="1">
          <mxGeometry relative="1" as="geometry">
            <mxPoint x="750" y="320" as="targetPoint" />
            <Array as="points">
              <mxPoint x="340" y="630" />
              <mxPoint x="751" y="630" />
              <mxPoint x="751" y="320" />
            </Array>
          </mxGeometry>
        </mxCell>
        <mxCell id="w9ujz4ej-WEvfIKI_Xtr-5" value="&lt;font style=&quot;font-size: 18px;&quot;&gt;loy_in&lt;/font&gt;" style="rounded=0;whiteSpace=wrap;html=1;strokeColor=#007FFF;fontColor=#007FFF;" parent="1" vertex="1">
          <mxGeometry x="280" y="540" width="120" height="60" as="geometry" />
        </mxCell>
        <mxCell id="w9ujz4ej-WEvfIKI_Xtr-6" value="" style="endArrow=classic;html=1;rounded=0;exitX=1;exitY=0.5;exitDx=0;exitDy=0;entryX=0;entryY=0.5;entryDx=0;entryDy=0;" parent="1" source="w9ujz4ej-WEvfIKI_Xtr-4" target="w9ujz4ej-WEvfIKI_Xtr-5" edge="1">
          <mxGeometry width="50" height="50" relative="1" as="geometry">
            <mxPoint x="230" y="530" as="sourcePoint" />
            <mxPoint x="280" y="480" as="targetPoint" />
          </mxGeometry>
        </mxCell>
        <mxCell id="w9ujz4ej-WEvfIKI_Xtr-7" value="&lt;font style=&quot;font-size: 18px;&quot;&gt;log_in_page&lt;/font&gt;" style="rounded=0;whiteSpace=wrap;html=1;fontColor=#FF0000;strokeColor=#FF0000;" parent="1" vertex="1">
          <mxGeometry x="280" y="440" width="120" height="60" as="geometry" />
        </mxCell>
        <mxCell id="w9ujz4ej-WEvfIKI_Xtr-8" value="&lt;font style=&quot;font-size: 18px;&quot;&gt;register_page&lt;/font&gt;" style="rounded=0;whiteSpace=wrap;html=1;fontColor=#FF0000;strokeColor=#FF0000;" parent="1" vertex="1">
          <mxGeometry x="280" y="330" width="120" height="60" as="geometry" />
        </mxCell>
        <mxCell id="w9ujz4ej-WEvfIKI_Xtr-12" value="" style="endArrow=classic;html=1;rounded=0;exitX=0.5;exitY=0;exitDx=0;exitDy=0;entryX=0;entryY=0.5;entryDx=0;entryDy=0;" parent="1" source="w9ujz4ej-WEvfIKI_Xtr-1" target="w9ujz4ej-WEvfIKI_Xtr-8" edge="1">
          <mxGeometry width="50" height="50" relative="1" as="geometry">
            <mxPoint x="230" y="530" as="sourcePoint" />
            <mxPoint x="280" y="480" as="targetPoint" />
            <Array as="points">
              <mxPoint x="160" y="360" />
            </Array>
          </mxGeometry>
        </mxCell>
        <mxCell id="w9ujz4ej-WEvfIKI_Xtr-13" value="" style="endArrow=classic;html=1;rounded=0;exitX=0;exitY=0.5;exitDx=0;exitDy=0;entryX=1;entryY=0.5;entryDx=0;entryDy=0;" parent="1" source="w9ujz4ej-WEvfIKI_Xtr-7" target="w9ujz4ej-WEvfIKI_Xtr-1" edge="1">
          <mxGeometry width="50" height="50" relative="1" as="geometry">
            <mxPoint x="230" y="530" as="sourcePoint" />
            <mxPoint x="280" y="480" as="targetPoint" />
          </mxGeometry>
        </mxCell>
        <mxCell id="w9ujz4ej-WEvfIKI_Xtr-14" value="&lt;font style=&quot;font-size: 18px;&quot;&gt;interface&lt;/font&gt;" style="text;html=1;align=center;verticalAlign=middle;whiteSpace=wrap;rounded=0;" parent="1" vertex="1">
          <mxGeometry x="310" y="410" width="60" height="30" as="geometry" />
        </mxCell>
        <mxCell id="w9ujz4ej-WEvfIKI_Xtr-15" value="&lt;font style=&quot;font-size: 18px;&quot;&gt;function&lt;/font&gt;" style="text;html=1;align=center;verticalAlign=middle;whiteSpace=wrap;rounded=0;" parent="1" vertex="1">
          <mxGeometry x="360" y="510" width="60" height="30" as="geometry" />
        </mxCell>
        <mxCell id="w9ujz4ej-WEvfIKI_Xtr-17" value="" style="endArrow=classic;html=1;rounded=0;exitX=0.5;exitY=1;exitDx=0;exitDy=0;entryX=0.5;entryY=0;entryDx=0;entryDy=0;" parent="1" source="w9ujz4ej-WEvfIKI_Xtr-7" target="w9ujz4ej-WEvfIKI_Xtr-5" edge="1">
          <mxGeometry width="50" height="50" relative="1" as="geometry">
            <mxPoint x="230" y="530" as="sourcePoint" />
            <mxPoint x="280" y="480" as="targetPoint" />
          </mxGeometry>
        </mxCell>
        <mxCell id="w9ujz4ej-WEvfIKI_Xtr-18" value="&lt;font style=&quot;font-size: 18px;&quot;&gt;user&lt;/font&gt;" style="rounded=0;whiteSpace=wrap;html=1;fontColor=#000000;strokeColor=#000000;" parent="1" vertex="1">
          <mxGeometry x="460" y="440" width="120" height="60" as="geometry" />
        </mxCell>
        <mxCell id="w9ujz4ej-WEvfIKI_Xtr-19" value="" style="endArrow=classic;html=1;rounded=0;exitX=0;exitY=0.5;exitDx=0;exitDy=0;" parent="1" source="w9ujz4ej-WEvfIKI_Xtr-18" target="w9ujz4ej-WEvfIKI_Xtr-7" edge="1">
          <mxGeometry width="50" height="50" relative="1" as="geometry">
            <mxPoint x="680" y="530" as="sourcePoint" />
            <mxPoint x="730" y="480" as="targetPoint" />
          </mxGeometry>
        </mxCell>
        <mxCell id="w9ujz4ej-WEvfIKI_Xtr-65" style="edgeStyle=orthogonalEdgeStyle;rounded=0;orthogonalLoop=1;jettySize=auto;html=1;entryX=1;entryY=0.5;entryDx=0;entryDy=0;strokeColor=#97D077;" parent="1" source="w9ujz4ej-WEvfIKI_Xtr-20" target="w9ujz4ej-WEvfIKI_Xtr-38" edge="1">
          <mxGeometry relative="1" as="geometry">
            <Array as="points">
              <mxPoint x="510" y="40" />
              <mxPoint x="1180" y="40" />
              <mxPoint x="1180" y="330" />
            </Array>
          </mxGeometry>
        </mxCell>
        <mxCell id="w9ujz4ej-WEvfIKI_Xtr-20" value="&lt;font style=&quot;font-size: 18px;&quot;&gt;user_data&lt;/font&gt;" style="rounded=0;whiteSpace=wrap;html=1;fontColor=#97D077;strokeColor=#97D077;" parent="1" vertex="1">
          <mxGeometry x="460" y="330" width="120" height="60" as="geometry" />
        </mxCell>
        <mxCell id="w9ujz4ej-WEvfIKI_Xtr-21" value="" style="endArrow=classic;html=1;rounded=0;fontColor=#97D077;exitX=1;exitY=0.5;exitDx=0;exitDy=0;entryX=0;entryY=0.5;entryDx=0;entryDy=0;fillColor=#97D077;strokeColor=#97D077;" parent="1" source="w9ujz4ej-WEvfIKI_Xtr-8" target="w9ujz4ej-WEvfIKI_Xtr-20" edge="1">
          <mxGeometry width="50" height="50" relative="1" as="geometry">
            <mxPoint x="420" y="440" as="sourcePoint" />
            <mxPoint x="470" y="390" as="targetPoint" />
          </mxGeometry>
        </mxCell>
        <mxCell id="w9ujz4ej-WEvfIKI_Xtr-23" value="&lt;font style=&quot;font-size: 18px;&quot;&gt;data.json&lt;/font&gt;" style="text;html=1;align=center;verticalAlign=middle;whiteSpace=wrap;rounded=0;" parent="1" vertex="1">
          <mxGeometry x="490" y="385" width="60" height="30" as="geometry" />
        </mxCell>
        <mxCell id="w9ujz4ej-WEvfIKI_Xtr-24" value="&lt;font style=&quot;font-size: 18px;&quot;&gt;odmin&lt;/font&gt;" style="rounded=0;whiteSpace=wrap;html=1;fontColor=#000000;strokeColor=#000000;" parent="1" vertex="1">
          <mxGeometry x="690" y="370" width="120" height="60" as="geometry" />
        </mxCell>
        <mxCell id="w9ujz4ej-WEvfIKI_Xtr-67" style="edgeStyle=orthogonalEdgeStyle;rounded=0;orthogonalLoop=1;jettySize=auto;html=1;entryX=0;entryY=0.5;entryDx=0;entryDy=0;strokeColor=#FF0000;" parent="1" source="w9ujz4ej-WEvfIKI_Xtr-25" target="w9ujz4ej-WEvfIKI_Xtr-66" edge="1">
          <mxGeometry relative="1" as="geometry">
            <Array as="points">
              <mxPoint x="960" y="470" />
              <mxPoint x="960" y="620" />
            </Array>
          </mxGeometry>
        </mxCell>
        <mxCell id="w9ujz4ej-WEvfIKI_Xtr-25" value="&lt;font style=&quot;font-size: 18px;&quot;&gt;consumer&lt;/font&gt;" style="rounded=0;whiteSpace=wrap;html=1;fontColor=#000000;strokeColor=#000000;" parent="1" vertex="1">
          <mxGeometry x="690" y="440" width="120" height="60" as="geometry" />
        </mxCell>
        <mxCell id="w9ujz4ej-WEvfIKI_Xtr-127" style="edgeStyle=orthogonalEdgeStyle;rounded=0;orthogonalLoop=1;jettySize=auto;html=1;entryX=0.5;entryY=0;entryDx=0;entryDy=0;strokeColor=#FF0000;" parent="1" source="w9ujz4ej-WEvfIKI_Xtr-26" target="w9ujz4ej-WEvfIKI_Xtr-126" edge="1">
          <mxGeometry relative="1" as="geometry" />
        </mxCell>
        <mxCell id="w9ujz4ej-WEvfIKI_Xtr-26" value="&lt;font style=&quot;font-size: 18px;&quot;&gt;seller&lt;/font&gt;" style="rounded=0;whiteSpace=wrap;html=1;fontColor=#000000;strokeColor=#000000;" parent="1" vertex="1">
          <mxGeometry x="690" y="510" width="120" height="60" as="geometry" />
        </mxCell>
        <mxCell id="w9ujz4ej-WEvfIKI_Xtr-29" value="" style="strokeWidth=1;html=1;shape=mxgraph.flowchart.annotation_2;align=left;labelPosition=right;pointerEvents=1;" parent="1" vertex="1">
          <mxGeometry x="580" y="400" width="60" height="140" as="geometry" />
        </mxCell>
        <mxCell id="w9ujz4ej-WEvfIKI_Xtr-30" value="" style="endArrow=classic;html=1;rounded=0;exitX=0.339;exitY=0.501;exitDx=0;exitDy=0;exitPerimeter=0;" parent="1" source="w9ujz4ej-WEvfIKI_Xtr-29" target="w9ujz4ej-WEvfIKI_Xtr-25" edge="1">
          <mxGeometry width="50" height="50" relative="1" as="geometry">
            <mxPoint x="520" y="530" as="sourcePoint" />
            <mxPoint x="640" y="470" as="targetPoint" />
          </mxGeometry>
        </mxCell>
        <mxCell id="w9ujz4ej-WEvfIKI_Xtr-31" value="" style="endArrow=classic;html=1;rounded=0;entryX=0;entryY=0.5;entryDx=0;entryDy=0;exitX=0.5;exitY=0;exitDx=0;exitDy=0;exitPerimeter=0;" parent="1" source="w9ujz4ej-WEvfIKI_Xtr-29" target="w9ujz4ej-WEvfIKI_Xtr-24" edge="1">
          <mxGeometry width="50" height="50" relative="1" as="geometry">
            <mxPoint x="622" y="481" as="sourcePoint" />
            <mxPoint x="650" y="480" as="targetPoint" />
          </mxGeometry>
        </mxCell>
        <mxCell id="w9ujz4ej-WEvfIKI_Xtr-32" value="" style="endArrow=classic;html=1;rounded=0;entryX=0;entryY=0.5;entryDx=0;entryDy=0;exitX=0.5;exitY=1;exitDx=0;exitDy=0;exitPerimeter=0;" parent="1" source="w9ujz4ej-WEvfIKI_Xtr-29" target="w9ujz4ej-WEvfIKI_Xtr-26" edge="1">
          <mxGeometry width="50" height="50" relative="1" as="geometry">
            <mxPoint x="632" y="491" as="sourcePoint" />
            <mxPoint x="660" y="490" as="targetPoint" />
          </mxGeometry>
        </mxCell>
        <mxCell id="w9ujz4ej-WEvfIKI_Xtr-33" value="&lt;font style=&quot;font-size: 18px;&quot;&gt;subclass&lt;/font&gt;" style="text;html=1;align=center;verticalAlign=middle;whiteSpace=wrap;rounded=0;" parent="1" vertex="1">
          <mxGeometry x="620" y="370" width="60" height="30" as="geometry" />
        </mxCell>
        <mxCell id="w9ujz4ej-WEvfIKI_Xtr-34" value="&lt;font style=&quot;font-size: 18px;&quot;&gt;subclass&lt;/font&gt;" style="text;html=1;align=center;verticalAlign=middle;whiteSpace=wrap;rounded=0;" parent="1" vertex="1">
          <mxGeometry x="620" y="440" width="60" height="30" as="geometry" />
        </mxCell>
        <mxCell id="w9ujz4ej-WEvfIKI_Xtr-35" value="&lt;font style=&quot;font-size: 18px;&quot;&gt;subclass&lt;/font&gt;" style="text;html=1;align=center;verticalAlign=middle;whiteSpace=wrap;rounded=0;" parent="1" vertex="1">
          <mxGeometry x="620" y="510" width="60" height="30" as="geometry" />
        </mxCell>
        <mxCell id="w9ujz4ej-WEvfIKI_Xtr-36" value="&lt;font style=&quot;font-size: 18px;&quot;&gt;admin_page&lt;/font&gt;" style="rounded=0;whiteSpace=wrap;html=1;fontColor=#FF0000;strokeColor=#FF0000;" parent="1" vertex="1">
          <mxGeometry x="860" y="370" width="120" height="60" as="geometry" />
        </mxCell>
        <mxCell id="w9ujz4ej-WEvfIKI_Xtr-37" value="&lt;font style=&quot;font-size: 18px;&quot;&gt;view_legs&lt;/font&gt;" style="rounded=0;whiteSpace=wrap;html=1;fontColor=#FF0000;strokeColor=#FF0000;" parent="1" vertex="1">
          <mxGeometry x="1040" y="230" width="120" height="60" as="geometry" />
        </mxCell>
        <mxCell id="w9ujz4ej-WEvfIKI_Xtr-38" value="&lt;span style=&quot;font-size: 18px;&quot;&gt;view_users&lt;/span&gt;" style="rounded=0;whiteSpace=wrap;html=1;fontColor=#FF0000;strokeColor=#FF0000;" parent="1" vertex="1">
          <mxGeometry x="1040" y="300" width="120" height="60" as="geometry" />
        </mxCell>
        <mxCell id="w9ujz4ej-WEvfIKI_Xtr-39" value="&lt;span style=&quot;font-size: 18px;&quot;&gt;view_bills&lt;/span&gt;" style="rounded=0;whiteSpace=wrap;html=1;fontColor=#FF0000;strokeColor=#FF0000;" parent="1" vertex="1">
          <mxGeometry x="1040" y="370" width="120" height="60" as="geometry" />
        </mxCell>
        <mxCell id="w9ujz4ej-WEvfIKI_Xtr-60" style="edgeStyle=orthogonalEdgeStyle;rounded=0;orthogonalLoop=1;jettySize=auto;html=1;strokeColor=#007FFF;" parent="1" source="w9ujz4ej-WEvfIKI_Xtr-40" target="w9ujz4ej-WEvfIKI_Xtr-58" edge="1">
          <mxGeometry relative="1" as="geometry" />
        </mxCell>
        <mxCell id="w9ujz4ej-WEvfIKI_Xtr-40" value="&lt;font style=&quot;font-size: 18px;&quot;&gt;del_user&lt;/font&gt;" style="rounded=0;whiteSpace=wrap;html=1;fontColor=#FF0000;strokeColor=#FF0000;" parent="1" vertex="1">
          <mxGeometry x="1040" y="440" width="120" height="60" as="geometry" />
        </mxCell>
        <mxCell id="w9ujz4ej-WEvfIKI_Xtr-61" style="edgeStyle=orthogonalEdgeStyle;rounded=0;orthogonalLoop=1;jettySize=auto;html=1;entryX=0;entryY=0.5;entryDx=0;entryDy=0;strokeColor=#007FFF;" parent="1" source="w9ujz4ej-WEvfIKI_Xtr-41" target="w9ujz4ej-WEvfIKI_Xtr-59" edge="1">
          <mxGeometry relative="1" as="geometry" />
        </mxCell>
        <mxCell id="w9ujz4ej-WEvfIKI_Xtr-41" value="&lt;font style=&quot;font-size: 12px;&quot;&gt;modify_product.price&lt;/font&gt;" style="rounded=0;whiteSpace=wrap;html=1;fontColor=#FF0000;strokeColor=#FF0000;" parent="1" vertex="1">
          <mxGeometry x="1040" y="510" width="120" height="60" as="geometry" />
        </mxCell>
        <mxCell id="w9ujz4ej-WEvfIKI_Xtr-42" value="" style="strokeWidth=1;html=1;shape=mxgraph.flowchart.annotation_2;align=left;labelPosition=right;pointerEvents=1;strokeColor=#FF0000;" parent="1" vertex="1">
          <mxGeometry x="980" y="260" width="60" height="280" as="geometry" />
        </mxCell>
        <mxCell id="w9ujz4ej-WEvfIKI_Xtr-43" value="" style="endArrow=classic;html=1;rounded=0;exitX=0.5;exitY=0;exitDx=0;exitDy=0;exitPerimeter=0;entryX=1;entryY=0;entryDx=0;entryDy=0;entryPerimeter=0;strokeColor=#FF0000;" parent="1" source="w9ujz4ej-WEvfIKI_Xtr-42" target="w9ujz4ej-WEvfIKI_Xtr-42" edge="1">
          <mxGeometry width="50" height="50" relative="1" as="geometry">
            <mxPoint x="1170" y="470" as="sourcePoint" />
            <mxPoint x="1220" y="420" as="targetPoint" />
          </mxGeometry>
        </mxCell>
        <mxCell id="w9ujz4ej-WEvfIKI_Xtr-44" value="" style="endArrow=classic;html=1;rounded=0;entryX=0;entryY=0.5;entryDx=0;entryDy=0;strokeColor=#FF0000;" parent="1" target="w9ujz4ej-WEvfIKI_Xtr-38" edge="1">
          <mxGeometry width="50" height="50" relative="1" as="geometry">
            <mxPoint x="1010" y="330" as="sourcePoint" />
            <mxPoint x="1050" y="270" as="targetPoint" />
          </mxGeometry>
        </mxCell>
        <mxCell id="w9ujz4ej-WEvfIKI_Xtr-45" value="" style="endArrow=classic;html=1;rounded=0;exitX=0.464;exitY=0.5;exitDx=0;exitDy=0;exitPerimeter=0;entryX=0;entryY=0.5;entryDx=0;entryDy=0;strokeColor=#FF0000;" parent="1" source="w9ujz4ej-WEvfIKI_Xtr-42" target="w9ujz4ej-WEvfIKI_Xtr-39" edge="1">
          <mxGeometry width="50" height="50" relative="1" as="geometry">
            <mxPoint x="1030" y="280" as="sourcePoint" />
            <mxPoint x="1060" y="280" as="targetPoint" />
          </mxGeometry>
        </mxCell>
        <mxCell id="w9ujz4ej-WEvfIKI_Xtr-46" value="" style="endArrow=classic;html=1;rounded=0;exitX=0.51;exitY=0.752;exitDx=0;exitDy=0;exitPerimeter=0;entryX=0;entryY=0.5;entryDx=0;entryDy=0;strokeColor=#FF0000;" parent="1" source="w9ujz4ej-WEvfIKI_Xtr-42" target="w9ujz4ej-WEvfIKI_Xtr-40" edge="1">
          <mxGeometry width="50" height="50" relative="1" as="geometry">
            <mxPoint x="1040" y="290" as="sourcePoint" />
            <mxPoint x="1070" y="290" as="targetPoint" />
          </mxGeometry>
        </mxCell>
        <mxCell id="w9ujz4ej-WEvfIKI_Xtr-49" value="" style="endArrow=classic;html=1;rounded=0;entryX=0;entryY=0.5;entryDx=0;entryDy=0;strokeColor=#FF0000;exitX=0.5;exitY=1;exitDx=0;exitDy=0;exitPerimeter=0;" parent="1" source="w9ujz4ej-WEvfIKI_Xtr-42" target="w9ujz4ej-WEvfIKI_Xtr-41" edge="1">
          <mxGeometry width="50" height="50" relative="1" as="geometry">
            <mxPoint x="1021" y="481" as="sourcePoint" />
            <mxPoint x="1050" y="480" as="targetPoint" />
          </mxGeometry>
        </mxCell>
        <mxCell id="w9ujz4ej-WEvfIKI_Xtr-50" value="" style="endArrow=classic;html=1;rounded=0;exitX=1;exitY=0.5;exitDx=0;exitDy=0;strokeColor=#FF0000;" parent="1" source="w9ujz4ej-WEvfIKI_Xtr-24" edge="1">
          <mxGeometry width="50" height="50" relative="1" as="geometry">
            <mxPoint x="1170" y="470" as="sourcePoint" />
            <mxPoint x="860" y="400" as="targetPoint" />
          </mxGeometry>
        </mxCell>
        <mxCell id="w9ujz4ej-WEvfIKI_Xtr-55" style="edgeStyle=orthogonalEdgeStyle;rounded=0;orthogonalLoop=1;jettySize=auto;html=1;entryX=0.5;entryY=1;entryDx=0;entryDy=0;exitX=0.5;exitY=1;exitDx=0;exitDy=0;strokeColor=#97D077;" parent="1" source="w9ujz4ej-WEvfIKI_Xtr-51" target="w9ujz4ej-WEvfIKI_Xtr-52" edge="1">
          <mxGeometry relative="1" as="geometry">
            <Array as="points">
              <mxPoint x="660" y="200" />
              <mxPoint x="970" y="200" />
            </Array>
          </mxGeometry>
        </mxCell>
        <mxCell id="w9ujz4ej-WEvfIKI_Xtr-51" value="&lt;font style=&quot;font-size: 18px;&quot;&gt;all the func&lt;/font&gt;" style="rounded=0;whiteSpace=wrap;html=1;strokeColor=#007FFF;fontColor=#007FFF;" parent="1" vertex="1">
          <mxGeometry x="600" y="110" width="120" height="60" as="geometry" />
        </mxCell>
        <mxCell id="w9ujz4ej-WEvfIKI_Xtr-57" style="edgeStyle=orthogonalEdgeStyle;rounded=0;orthogonalLoop=1;jettySize=auto;html=1;entryX=0.5;entryY=0;entryDx=0;entryDy=0;strokeColor=#97D077;" parent="1" source="w9ujz4ej-WEvfIKI_Xtr-52" target="w9ujz4ej-WEvfIKI_Xtr-37" edge="1">
          <mxGeometry relative="1" as="geometry" />
        </mxCell>
        <mxCell id="w9ujz4ej-WEvfIKI_Xtr-52" value="&lt;font style=&quot;font-size: 18px;&quot;&gt;user_data&lt;/font&gt;" style="rounded=0;whiteSpace=wrap;html=1;fontColor=#97D077;strokeColor=#97D077;" parent="1" vertex="1">
          <mxGeometry x="910" y="110" width="120" height="60" as="geometry" />
        </mxCell>
        <mxCell id="w9ujz4ej-WEvfIKI_Xtr-54" style="edgeStyle=orthogonalEdgeStyle;rounded=0;orthogonalLoop=1;jettySize=auto;html=1;exitX=0;exitY=0.5;exitDx=0;exitDy=0;entryX=1;entryY=0.5;entryDx=0;entryDy=0;strokeColor=#CCCC00;" parent="1" source="w9ujz4ej-WEvfIKI_Xtr-53" target="w9ujz4ej-WEvfIKI_Xtr-51" edge="1">
          <mxGeometry relative="1" as="geometry" />
        </mxCell>
        <mxCell id="w9ujz4ej-WEvfIKI_Xtr-53" value="&lt;font color=&quot;#cccc00&quot; style=&quot;font-size: 18px;&quot;&gt;log_func_call&lt;/font&gt;" style="rounded=0;whiteSpace=wrap;html=1;fontColor=#97D077;strokeColor=#CCCC00;" parent="1" vertex="1">
          <mxGeometry x="760" y="110" width="120" height="60" as="geometry" />
        </mxCell>
        <mxCell id="w9ujz4ej-WEvfIKI_Xtr-56" value="&lt;font style=&quot;font-size: 18px;&quot;&gt;decoration_function&lt;/font&gt;" style="text;html=1;align=center;verticalAlign=middle;whiteSpace=wrap;rounded=0;fontColor=#CCCC00;" parent="1" vertex="1">
          <mxGeometry x="790" y="80" width="60" height="30" as="geometry" />
        </mxCell>
        <mxCell id="w9ujz4ej-WEvfIKI_Xtr-62" style="edgeStyle=orthogonalEdgeStyle;rounded=0;orthogonalLoop=1;jettySize=auto;html=1;entryX=0.5;entryY=0;entryDx=0;entryDy=0;strokeColor=#007FFF;exitX=0.5;exitY=0;exitDx=0;exitDy=0;" parent="1" source="w9ujz4ej-WEvfIKI_Xtr-58" target="w9ujz4ej-WEvfIKI_Xtr-20" edge="1">
          <mxGeometry relative="1" as="geometry">
            <mxPoint x="1300" y="430" as="sourcePoint" />
            <mxPoint x="520" y="320" as="targetPoint" />
            <Array as="points">
              <mxPoint x="1280" y="210" />
              <mxPoint x="530" y="210" />
              <mxPoint x="530" y="330" />
            </Array>
          </mxGeometry>
        </mxCell>
        <mxCell id="w9ujz4ej-WEvfIKI_Xtr-58" value="&lt;font style=&quot;font-size: 18px;&quot;&gt;del_user_func&lt;/font&gt;" style="rounded=0;whiteSpace=wrap;html=1;strokeColor=#007FFF;fontColor=#007FFF;" parent="1" vertex="1">
          <mxGeometry x="1220" y="440" width="120" height="60" as="geometry" />
        </mxCell>
        <mxCell id="w9ujz4ej-WEvfIKI_Xtr-59" value="&lt;font style=&quot;font-size: 14px;&quot;&gt;del_user_function&lt;/font&gt;" style="rounded=0;whiteSpace=wrap;html=1;strokeColor=#007FFF;fontColor=#007FFF;" parent="1" vertex="1">
          <mxGeometry x="1220" y="510" width="120" height="60" as="geometry" />
        </mxCell>
        <mxCell id="w9ujz4ej-WEvfIKI_Xtr-71" style="edgeStyle=orthogonalEdgeStyle;rounded=0;orthogonalLoop=1;jettySize=auto;html=1;strokeColor=#007FFF;" parent="1" source="w9ujz4ej-WEvfIKI_Xtr-66" target="w9ujz4ej-WEvfIKI_Xtr-70" edge="1">
          <mxGeometry relative="1" as="geometry">
            <Array as="points">
              <mxPoint x="1100" y="580" />
            </Array>
          </mxGeometry>
        </mxCell>
        <mxCell id="w9ujz4ej-WEvfIKI_Xtr-77" style="edgeStyle=orthogonalEdgeStyle;rounded=0;orthogonalLoop=1;jettySize=auto;html=1;strokeColor=#FF0000;" parent="1" source="w9ujz4ej-WEvfIKI_Xtr-66" target="w9ujz4ej-WEvfIKI_Xtr-73" edge="1">
          <mxGeometry relative="1" as="geometry">
            <Array as="points">
              <mxPoint x="1210" y="640" />
              <mxPoint x="1210" y="640" />
            </Array>
          </mxGeometry>
        </mxCell>
        <mxCell id="w9ujz4ej-WEvfIKI_Xtr-78" style="edgeStyle=orthogonalEdgeStyle;rounded=0;orthogonalLoop=1;jettySize=auto;html=1;entryX=0.5;entryY=0;entryDx=0;entryDy=0;strokeColor=#FF0000;" parent="1" source="w9ujz4ej-WEvfIKI_Xtr-66" target="w9ujz4ej-WEvfIKI_Xtr-75" edge="1">
          <mxGeometry relative="1" as="geometry" />
        </mxCell>
        <mxCell id="w9ujz4ej-WEvfIKI_Xtr-66" value="&lt;font style=&quot;font-size: 18px;&quot;&gt;product_page&lt;/font&gt;" style="rounded=0;whiteSpace=wrap;html=1;fontColor=#FF0000;strokeColor=#FF0000;" parent="1" vertex="1">
          <mxGeometry x="1040" y="590" width="120" height="60" as="geometry" />
        </mxCell>
        <mxCell id="w9ujz4ej-WEvfIKI_Xtr-101" style="edgeStyle=orthogonalEdgeStyle;rounded=0;orthogonalLoop=1;jettySize=auto;html=1;entryX=0;entryY=0.5;entryDx=0;entryDy=0;strokeColor=#97D077;" parent="1" source="w9ujz4ej-WEvfIKI_Xtr-70" target="w9ujz4ej-WEvfIKI_Xtr-100" edge="1">
          <mxGeometry relative="1" as="geometry" />
        </mxCell>
        <mxCell id="w9ujz4ej-WEvfIKI_Xtr-70" value="&lt;font style=&quot;font-size: 18px;&quot;&gt;add_to_chort&lt;/font&gt;" style="rounded=0;whiteSpace=wrap;html=1;strokeColor=#007FFF;fontColor=#007FFF;" parent="1" vertex="1">
          <mxGeometry x="1360" y="540" width="120" height="60" as="geometry" />
        </mxCell>
        <mxCell id="w9ujz4ej-WEvfIKI_Xtr-104" style="edgeStyle=orthogonalEdgeStyle;rounded=0;orthogonalLoop=1;jettySize=auto;html=1;entryX=0.5;entryY=0;entryDx=0;entryDy=0;strokeColor=#FF0000;" parent="1" source="w9ujz4ej-WEvfIKI_Xtr-72" target="w9ujz4ej-WEvfIKI_Xtr-103" edge="1">
          <mxGeometry relative="1" as="geometry" />
        </mxCell>
        <mxCell id="w9ujz4ej-WEvfIKI_Xtr-72" value="&lt;font style=&quot;font-size: 18px;&quot;&gt;open_chart&lt;/font&gt;" style="rounded=0;whiteSpace=wrap;html=1;fontColor=#FF0000;strokeColor=#FF0000;" parent="1" vertex="1">
          <mxGeometry x="1530" y="580" width="120" height="60" as="geometry" />
        </mxCell>
        <mxCell id="w9ujz4ej-WEvfIKI_Xtr-81" style="edgeStyle=orthogonalEdgeStyle;rounded=0;orthogonalLoop=1;jettySize=auto;html=1;entryX=0.5;entryY=0;entryDx=0;entryDy=0;strokeColor=#FF0000;" parent="1" source="w9ujz4ej-WEvfIKI_Xtr-73" target="w9ujz4ej-WEvfIKI_Xtr-74" edge="1">
          <mxGeometry relative="1" as="geometry" />
        </mxCell>
        <mxCell id="w9ujz4ej-WEvfIKI_Xtr-73" value="&lt;font style=&quot;font-size: 18px;&quot;&gt;open_my_info&lt;/font&gt;" style="rounded=0;whiteSpace=wrap;html=1;fontColor=#FF0000;strokeColor=#FF0000;" parent="1" vertex="1">
          <mxGeometry x="1310" y="610" width="120" height="60" as="geometry" />
        </mxCell>
        <mxCell id="w9ujz4ej-WEvfIKI_Xtr-97" style="edgeStyle=orthogonalEdgeStyle;rounded=0;orthogonalLoop=1;jettySize=auto;html=1;entryX=0.5;entryY=0;entryDx=0;entryDy=0;strokeColor=#007FFF;" parent="1" source="w9ujz4ej-WEvfIKI_Xtr-74" target="w9ujz4ej-WEvfIKI_Xtr-93" edge="1">
          <mxGeometry relative="1" as="geometry" />
        </mxCell>
        <mxCell id="w9ujz4ej-WEvfIKI_Xtr-74" value="&lt;font style=&quot;font-size: 18px;&quot;&gt;top_up_page&lt;/font&gt;" style="rounded=0;whiteSpace=wrap;html=1;fontColor=#FF0000;strokeColor=#FF0000;" parent="1" vertex="1">
          <mxGeometry x="1310" y="700" width="120" height="60" as="geometry" />
        </mxCell>
        <mxCell id="w9ujz4ej-WEvfIKI_Xtr-75" value="&lt;font style=&quot;font-size: 18px;&quot;&gt;view_infor&lt;/font&gt;" style="rounded=0;whiteSpace=wrap;html=1;fontColor=#FF0000;strokeColor=#FF0000;" parent="1" vertex="1">
          <mxGeometry x="1220" y="770" width="120" height="60" as="geometry" />
        </mxCell>
        <mxCell id="w9ujz4ej-WEvfIKI_Xtr-82" value="&lt;font style=&quot;font-size: 18px;&quot;&gt;button&lt;/font&gt;" style="text;html=1;align=center;verticalAlign=middle;whiteSpace=wrap;rounded=0;fontColor=#FF0000;" parent="1" vertex="1">
          <mxGeometry x="1220" y="690" width="60" height="30" as="geometry" />
        </mxCell>
        <mxCell id="w9ujz4ej-WEvfIKI_Xtr-83" value="&lt;font style=&quot;font-size: 18px;&quot;&gt;button&lt;/font&gt;" style="text;html=1;align=center;verticalAlign=middle;whiteSpace=wrap;rounded=0;fontColor=#FF0000;" parent="1" vertex="1">
          <mxGeometry x="1190" y="640" width="60" height="30" as="geometry" />
        </mxCell>
        <mxCell id="w9ujz4ej-WEvfIKI_Xtr-84" value="&lt;font style=&quot;font-size: 18px;&quot;&gt;button&lt;/font&gt;" style="text;html=1;align=center;verticalAlign=middle;whiteSpace=wrap;rounded=0;fontColor=#FF0000;" parent="1" vertex="1">
          <mxGeometry x="1370" y="670" width="60" height="30" as="geometry" />
        </mxCell>
        <mxCell id="w9ujz4ej-WEvfIKI_Xtr-89" value="&lt;font style=&quot;font-size: 18px;&quot;&gt;button&lt;/font&gt;" style="text;html=1;align=center;verticalAlign=middle;whiteSpace=wrap;rounded=0;fontColor=#FF0000;" parent="1" vertex="1">
          <mxGeometry x="1450" y="600" width="60" height="30" as="geometry" />
        </mxCell>
        <mxCell id="w9ujz4ej-WEvfIKI_Xtr-91" style="edgeStyle=orthogonalEdgeStyle;rounded=0;orthogonalLoop=1;jettySize=auto;html=1;entryX=0.5;entryY=1;entryDx=0;entryDy=0;strokeColor=#97D077;" parent="1" source="w9ujz4ej-WEvfIKI_Xtr-90" target="w9ujz4ej-WEvfIKI_Xtr-66" edge="1">
          <mxGeometry relative="1" as="geometry" />
        </mxCell>
        <mxCell id="w9ujz4ej-WEvfIKI_Xtr-92" style="edgeStyle=orthogonalEdgeStyle;rounded=0;orthogonalLoop=1;jettySize=auto;html=1;entryX=0;entryY=0.5;entryDx=0;entryDy=0;exitX=0.75;exitY=1;exitDx=0;exitDy=0;strokeColor=#97D077;" parent="1" source="w9ujz4ej-WEvfIKI_Xtr-90" target="w9ujz4ej-WEvfIKI_Xtr-75" edge="1">
          <mxGeometry relative="1" as="geometry" />
        </mxCell>
        <mxCell id="w9ujz4ej-WEvfIKI_Xtr-90" value="&lt;font style=&quot;font-size: 18px;&quot;&gt;product_data&lt;/font&gt;" style="rounded=0;whiteSpace=wrap;html=1;fontColor=#97D077;strokeColor=#97D077;" parent="1" vertex="1">
          <mxGeometry x="1040" y="700" width="120" height="60" as="geometry" />
        </mxCell>
        <mxCell id="w9ujz4ej-WEvfIKI_Xtr-109" style="edgeStyle=orthogonalEdgeStyle;rounded=0;orthogonalLoop=1;jettySize=auto;html=1;entryX=0;entryY=0.5;entryDx=0;entryDy=0;strokeColor=#97D077;" parent="1" source="w9ujz4ej-WEvfIKI_Xtr-93" target="w9ujz4ej-WEvfIKI_Xtr-108" edge="1">
          <mxGeometry relative="1" as="geometry" />
        </mxCell>
        <mxCell id="w9ujz4ej-WEvfIKI_Xtr-93" value="&lt;font style=&quot;font-size: 18px;&quot;&gt;top_up&lt;/font&gt;" style="rounded=0;whiteSpace=wrap;html=1;strokeColor=#007FFF;fontColor=#007FFF;" parent="1" vertex="1">
          <mxGeometry x="1360" y="800" width="120" height="60" as="geometry" />
        </mxCell>
        <mxCell id="w9ujz4ej-WEvfIKI_Xtr-99" value="" style="endArrow=classic;html=1;rounded=0;exitX=1;exitY=0.25;exitDx=0;exitDy=0;strokeColor=#FF0000;" parent="1" source="w9ujz4ej-WEvfIKI_Xtr-66" edge="1">
          <mxGeometry width="50" height="50" relative="1" as="geometry">
            <mxPoint x="1330" y="710" as="sourcePoint" />
            <mxPoint x="1530" y="605" as="targetPoint" />
          </mxGeometry>
        </mxCell>
        <mxCell id="w9ujz4ej-WEvfIKI_Xtr-102" style="edgeStyle=orthogonalEdgeStyle;rounded=0;orthogonalLoop=1;jettySize=auto;html=1;entryX=0.5;entryY=0;entryDx=0;entryDy=0;strokeColor=#97D077;" parent="1" source="w9ujz4ej-WEvfIKI_Xtr-100" target="w9ujz4ej-WEvfIKI_Xtr-72" edge="1">
          <mxGeometry relative="1" as="geometry" />
        </mxCell>
        <mxCell id="w9ujz4ej-WEvfIKI_Xtr-100" value="&lt;font style=&quot;font-size: 18px;&quot;&gt;[user_name]_chart&lt;/font&gt;" style="rounded=0;whiteSpace=wrap;html=1;fontColor=#97D077;strokeColor=#97D077;" parent="1" vertex="1">
          <mxGeometry x="1450" y="440" width="170" height="60" as="geometry" />
        </mxCell>
        <mxCell id="w9ujz4ej-WEvfIKI_Xtr-114" style="edgeStyle=orthogonalEdgeStyle;rounded=0;orthogonalLoop=1;jettySize=auto;html=1;entryX=0;entryY=0.5;entryDx=0;entryDy=0;" parent="1" source="w9ujz4ej-WEvfIKI_Xtr-103" target="w9ujz4ej-WEvfIKI_Xtr-112" edge="1">
          <mxGeometry relative="1" as="geometry" />
        </mxCell>
        <mxCell id="w9ujz4ej-WEvfIKI_Xtr-103" value="&lt;font style=&quot;font-size: 18px;&quot;&gt;check_out_page&lt;/font&gt;" style="rounded=0;whiteSpace=wrap;html=1;fontColor=#FF0000;strokeColor=#FF0000;" parent="1" vertex="1">
          <mxGeometry x="1690" y="660" width="140" height="60" as="geometry" />
        </mxCell>
        <mxCell id="w9ujz4ej-WEvfIKI_Xtr-105" value="&lt;font style=&quot;font-size: 18px;&quot;&gt;button&lt;/font&gt;" style="text;html=1;align=center;verticalAlign=middle;whiteSpace=wrap;rounded=0;fontColor=#FF0000;" parent="1" vertex="1">
          <mxGeometry x="1660" y="580" width="60" height="30" as="geometry" />
        </mxCell>
        <mxCell id="w9ujz4ej-WEvfIKI_Xtr-111" style="edgeStyle=orthogonalEdgeStyle;rounded=0;orthogonalLoop=1;jettySize=auto;html=1;entryX=0.5;entryY=1;entryDx=0;entryDy=0;strokeColor=#97D077;" parent="1" source="w9ujz4ej-WEvfIKI_Xtr-108" target="w9ujz4ej-WEvfIKI_Xtr-110" edge="1">
          <mxGeometry relative="1" as="geometry" />
        </mxCell>
        <mxCell id="w9ujz4ej-WEvfIKI_Xtr-108" value="&lt;font style=&quot;font-size: 18px;&quot;&gt;[user_name]_info&lt;/font&gt;" style="rounded=0;whiteSpace=wrap;html=1;fontColor=#97D077;strokeColor=#97D077;" parent="1" vertex="1">
          <mxGeometry x="1510" y="800" width="160" height="60" as="geometry" />
        </mxCell>
        <mxCell id="w9ujz4ej-WEvfIKI_Xtr-115" style="edgeStyle=orthogonalEdgeStyle;rounded=0;orthogonalLoop=1;jettySize=auto;html=1;strokeColor=#007FFF;" parent="1" source="w9ujz4ej-WEvfIKI_Xtr-110" edge="1">
          <mxGeometry relative="1" as="geometry">
            <mxPoint x="1860" y="690" as="targetPoint" />
          </mxGeometry>
        </mxCell>
        <mxCell id="w9ujz4ej-WEvfIKI_Xtr-110" value="&lt;font style=&quot;font-size: 18px;&quot;&gt;check_out&lt;/font&gt;" style="rounded=0;whiteSpace=wrap;html=1;strokeColor=#007FFF;fontColor=#007FFF;" parent="1" vertex="1">
          <mxGeometry x="1690" y="740" width="120" height="60" as="geometry" />
        </mxCell>
        <mxCell id="w9ujz4ej-WEvfIKI_Xtr-117" style="edgeStyle=orthogonalEdgeStyle;rounded=0;orthogonalLoop=1;jettySize=auto;html=1;strokeColor=#007FFF;" parent="1" source="w9ujz4ej-WEvfIKI_Xtr-112" target="w9ujz4ej-WEvfIKI_Xtr-116" edge="1">
          <mxGeometry relative="1" as="geometry" />
        </mxCell>
        <mxCell id="w9ujz4ej-WEvfIKI_Xtr-112" value="&lt;font style=&quot;font-size: 18px;&quot;&gt;review.page&lt;/font&gt;" style="rounded=0;whiteSpace=wrap;html=1;fontColor=#FF0000;strokeColor=#FF0000;" parent="1" vertex="1">
          <mxGeometry x="1890" y="660" width="120" height="60" as="geometry" />
        </mxCell>
        <mxCell id="w9ujz4ej-WEvfIKI_Xtr-122" style="edgeStyle=orthogonalEdgeStyle;rounded=0;orthogonalLoop=1;jettySize=auto;html=1;exitX=0;exitY=0.5;exitDx=0;exitDy=0;entryX=0.5;entryY=1;entryDx=0;entryDy=0;strokeColor=#007FFF;" parent="1" source="w9ujz4ej-WEvfIKI_Xtr-116" target="w9ujz4ej-WEvfIKI_Xtr-90" edge="1">
          <mxGeometry relative="1" as="geometry">
            <Array as="points">
              <mxPoint x="1870" y="810" />
              <mxPoint x="1870" y="970" />
              <mxPoint x="1100" y="970" />
            </Array>
          </mxGeometry>
        </mxCell>
        <mxCell id="w9ujz4ej-WEvfIKI_Xtr-123" style="edgeStyle=orthogonalEdgeStyle;rounded=0;orthogonalLoop=1;jettySize=auto;html=1;strokeColor=#97D077;" parent="1" source="w9ujz4ej-WEvfIKI_Xtr-116" target="w9ujz4ej-WEvfIKI_Xtr-121" edge="1">
          <mxGeometry relative="1" as="geometry" />
        </mxCell>
        <mxCell id="w9ujz4ej-WEvfIKI_Xtr-116" value="&lt;font style=&quot;font-size: 18px;&quot;&gt;submit_review&lt;/font&gt;" style="rounded=0;whiteSpace=wrap;html=1;strokeColor=#007FFF;fontColor=#007FFF;" parent="1" vertex="1">
          <mxGeometry x="1890" y="780" width="120" height="60" as="geometry" />
        </mxCell>
        <mxCell id="w9ujz4ej-WEvfIKI_Xtr-120" style="edgeStyle=orthogonalEdgeStyle;rounded=0;orthogonalLoop=1;jettySize=auto;html=1;strokeColor=#007FFF;" parent="1" source="w9ujz4ej-WEvfIKI_Xtr-116" target="w9ujz4ej-WEvfIKI_Xtr-116" edge="1">
          <mxGeometry relative="1" as="geometry" />
        </mxCell>
        <mxCell id="w9ujz4ej-WEvfIKI_Xtr-125" style="edgeStyle=orthogonalEdgeStyle;rounded=0;orthogonalLoop=1;jettySize=auto;html=1;entryX=1;entryY=0.5;entryDx=0;entryDy=0;strokeColor=#97D077;" parent="1" source="w9ujz4ej-WEvfIKI_Xtr-121" target="w9ujz4ej-WEvfIKI_Xtr-39" edge="1">
          <mxGeometry relative="1" as="geometry">
            <Array as="points">
              <mxPoint x="2070" y="940" />
              <mxPoint x="2070" y="400" />
            </Array>
          </mxGeometry>
        </mxCell>
        <mxCell id="w9ujz4ej-WEvfIKI_Xtr-121" value="&lt;font style=&quot;font-size: 18px;&quot;&gt;bill&lt;/font&gt;" style="rounded=0;whiteSpace=wrap;html=1;fontColor=#97D077;strokeColor=#97D077;" parent="1" vertex="1">
          <mxGeometry x="1890" y="910" width="120" height="60" as="geometry" />
        </mxCell>
        <mxCell id="w9ujz4ej-WEvfIKI_Xtr-129" style="edgeStyle=orthogonalEdgeStyle;rounded=0;orthogonalLoop=1;jettySize=auto;html=1;strokeColor=#007FFF;" parent="1" source="w9ujz4ej-WEvfIKI_Xtr-126" target="w9ujz4ej-WEvfIKI_Xtr-128" edge="1">
          <mxGeometry relative="1" as="geometry" />
        </mxCell>
        <mxCell id="w9ujz4ej-WEvfIKI_Xtr-126" value="&lt;font style=&quot;font-size: 18px;&quot;&gt;restodc_page&lt;/font&gt;" style="rounded=0;whiteSpace=wrap;html=1;fontColor=#FF0000;strokeColor=#FF0000;" parent="1" vertex="1">
          <mxGeometry x="860" y="830" width="120" height="60" as="geometry" />
        </mxCell>
        <mxCell id="w9ujz4ej-WEvfIKI_Xtr-128" value="&lt;font style=&quot;font-size: 18px;&quot;&gt;restodc_func&lt;/font&gt;" style="rounded=0;whiteSpace=wrap;html=1;strokeColor=#007FFF;fontColor=#007FFF;" parent="1" vertex="1">
          <mxGeometry x="860" y="940" width="120" height="60" as="geometry" />
        </mxCell>
        <mxCell id="w9ujz4ej-WEvfIKI_Xtr-130" style="edgeStyle=orthogonalEdgeStyle;rounded=0;orthogonalLoop=1;jettySize=auto;html=1;entryX=0.324;entryY=0.968;entryDx=0;entryDy=0;entryPerimeter=0;strokeColor=#007FFF;" parent="1" source="w9ujz4ej-WEvfIKI_Xtr-128" target="w9ujz4ej-WEvfIKI_Xtr-90" edge="1">
          <mxGeometry relative="1" as="geometry" />
        </mxCell>
        <mxCell id="w9ujz4ej-WEvfIKI_Xtr-131" value="&lt;font style=&quot;font-size: 18px;&quot;&gt;product&lt;/font&gt;" style="rounded=0;whiteSpace=wrap;html=1;fontColor=#000000;strokeColor=#000000;" parent="1" vertex="1">
          <mxGeometry x="100" y="850" width="120" height="60" as="geometry" />
        </mxCell>
        <mxCell id="w9ujz4ej-WEvfIKI_Xtr-177" style="edgeStyle=orthogonalEdgeStyle;rounded=0;orthogonalLoop=1;jettySize=auto;html=1;entryX=0.5;entryY=0;entryDx=0;entryDy=0;" parent="1" source="w9ujz4ej-WEvfIKI_Xtr-132" target="w9ujz4ej-WEvfIKI_Xtr-175" edge="1">
          <mxGeometry relative="1" as="geometry">
            <Array as="points">
              <mxPoint x="410" y="650" />
              <mxPoint x="750" y="650" />
            </Array>
          </mxGeometry>
        </mxCell>
        <mxCell id="w9ujz4ej-WEvfIKI_Xtr-132" value="&lt;font style=&quot;font-size: 18px;&quot;&gt;electro&lt;/font&gt;" style="rounded=0;whiteSpace=wrap;html=1;fontColor=#000000;strokeColor=#000000;" parent="1" vertex="1">
          <mxGeometry x="350" y="700" width="120" height="60" as="geometry" />
        </mxCell>
        <mxCell id="w9ujz4ej-WEvfIKI_Xtr-133" value="&lt;font style=&quot;font-size: 18px;&quot;&gt;clothing&lt;/font&gt;" style="rounded=0;whiteSpace=wrap;html=1;fontColor=#000000;strokeColor=#000000;" parent="1" vertex="1">
          <mxGeometry x="350" y="850" width="120" height="60" as="geometry" />
        </mxCell>
        <mxCell id="w9ujz4ej-WEvfIKI_Xtr-134" value="&lt;font style=&quot;font-size: 18px;&quot;&gt;food_product&lt;/font&gt;" style="rounded=0;whiteSpace=wrap;html=1;fontColor=#000000;strokeColor=#000000;" parent="1" vertex="1">
          <mxGeometry x="350" y="1000" width="120" height="60" as="geometry" />
        </mxCell>
        <mxCell id="w9ujz4ej-WEvfIKI_Xtr-135" value="&lt;span style=&quot;font-size: 15px;&quot;&gt;smart phone&lt;/span&gt;" style="rounded=0;whiteSpace=wrap;html=1;fontColor=#000000;strokeColor=#000000;fontSize=15;" parent="1" vertex="1">
          <mxGeometry x="550" y="660" width="90" height="40" as="geometry" />
        </mxCell>
        <mxCell id="w9ujz4ej-WEvfIKI_Xtr-136" value="&lt;font style=&quot;font-size: 18px;&quot;&gt;lap.top&lt;/font&gt;" style="rounded=0;whiteSpace=wrap;html=1;fontColor=#000000;strokeColor=#000000;" parent="1" vertex="1">
          <mxGeometry x="550" y="710" width="90" height="40" as="geometry" />
        </mxCell>
        <mxCell id="w9ujz4ej-WEvfIKI_Xtr-137" value="&lt;font style=&quot;font-size: 15px;&quot;&gt;head phone&lt;/font&gt;" style="rounded=0;whiteSpace=wrap;html=1;fontColor=#000000;strokeColor=#000000;" parent="1" vertex="1">
          <mxGeometry x="550" y="760" width="90" height="40" as="geometry" />
        </mxCell>
        <mxCell id="w9ujz4ej-WEvfIKI_Xtr-144" value="" style="strokeWidth=1;html=1;shape=mxgraph.flowchart.annotation_2;align=left;labelPosition=right;pointerEvents=1;" parent="1" vertex="1">
          <mxGeometry x="470" y="680" width="80" height="100" as="geometry" />
        </mxCell>
        <mxCell id="w9ujz4ej-WEvfIKI_Xtr-145" value="" style="endArrow=classic;html=1;rounded=0;exitX=0.513;exitY=0.5;exitDx=0;exitDy=0;exitPerimeter=0;entryX=1;entryY=0.5;entryDx=0;entryDy=0;entryPerimeter=0;" parent="1" source="w9ujz4ej-WEvfIKI_Xtr-144" target="w9ujz4ej-WEvfIKI_Xtr-144" edge="1">
          <mxGeometry width="50" height="50" relative="1" as="geometry">
            <mxPoint x="560" y="810" as="sourcePoint" />
            <mxPoint x="610" y="760" as="targetPoint" />
          </mxGeometry>
        </mxCell>
        <mxCell id="w9ujz4ej-WEvfIKI_Xtr-146" value="" style="endArrow=classic;html=1;rounded=0;exitX=0.5;exitY=0;exitDx=0;exitDy=0;exitPerimeter=0;entryX=1;entryY=0;entryDx=0;entryDy=0;entryPerimeter=0;" parent="1" source="w9ujz4ej-WEvfIKI_Xtr-144" target="w9ujz4ej-WEvfIKI_Xtr-144" edge="1">
          <mxGeometry width="50" height="50" relative="1" as="geometry">
            <mxPoint x="521" y="740" as="sourcePoint" />
            <mxPoint x="560" y="740" as="targetPoint" />
            <Array as="points">
              <mxPoint x="530" y="680" />
            </Array>
          </mxGeometry>
        </mxCell>
        <mxCell id="w9ujz4ej-WEvfIKI_Xtr-147" value="" style="endArrow=classic;html=1;rounded=0;exitX=0.5;exitY=1;exitDx=0;exitDy=0;exitPerimeter=0;entryX=0;entryY=0.5;entryDx=0;entryDy=0;" parent="1" source="w9ujz4ej-WEvfIKI_Xtr-144" target="w9ujz4ej-WEvfIKI_Xtr-137" edge="1">
          <mxGeometry width="50" height="50" relative="1" as="geometry">
            <mxPoint x="531" y="750" as="sourcePoint" />
            <mxPoint x="570" y="750" as="targetPoint" />
          </mxGeometry>
        </mxCell>
        <mxCell id="w9ujz4ej-WEvfIKI_Xtr-148" value="&lt;font style=&quot;font-size: 18px;&quot;&gt;shirt&lt;/font&gt;" style="rounded=0;whiteSpace=wrap;html=1;fontColor=#000000;strokeColor=#000000;" parent="1" vertex="1">
          <mxGeometry x="550" y="810" width="90" height="40" as="geometry" />
        </mxCell>
        <mxCell id="w9ujz4ej-WEvfIKI_Xtr-149" value="&lt;font style=&quot;font-size: 18px;&quot;&gt;pants&lt;/font&gt;" style="rounded=0;whiteSpace=wrap;html=1;fontColor=#000000;strokeColor=#000000;" parent="1" vertex="1">
          <mxGeometry x="550" y="860" width="90" height="40" as="geometry" />
        </mxCell>
        <mxCell id="w9ujz4ej-WEvfIKI_Xtr-150" value="&lt;span style=&quot;font-size: 18px;&quot;&gt;shoes&lt;/span&gt;" style="rounded=0;whiteSpace=wrap;html=1;fontColor=#000000;strokeColor=#000000;" parent="1" vertex="1">
          <mxGeometry x="550" y="910" width="90" height="40" as="geometry" />
        </mxCell>
        <mxCell id="w9ujz4ej-WEvfIKI_Xtr-151" value="" style="strokeWidth=1;html=1;shape=mxgraph.flowchart.annotation_2;align=left;labelPosition=right;pointerEvents=1;" parent="1" vertex="1">
          <mxGeometry x="470" y="830" width="80" height="100" as="geometry" />
        </mxCell>
        <mxCell id="w9ujz4ej-WEvfIKI_Xtr-152" value="" style="endArrow=classic;html=1;rounded=0;exitX=0.513;exitY=0.5;exitDx=0;exitDy=0;exitPerimeter=0;entryX=1;entryY=0.5;entryDx=0;entryDy=0;entryPerimeter=0;" parent="1" source="w9ujz4ej-WEvfIKI_Xtr-151" target="w9ujz4ej-WEvfIKI_Xtr-151" edge="1">
          <mxGeometry width="50" height="50" relative="1" as="geometry">
            <mxPoint x="560" y="960" as="sourcePoint" />
            <mxPoint x="610" y="910" as="targetPoint" />
          </mxGeometry>
        </mxCell>
        <mxCell id="w9ujz4ej-WEvfIKI_Xtr-153" value="" style="endArrow=classic;html=1;rounded=0;exitX=0.5;exitY=0;exitDx=0;exitDy=0;exitPerimeter=0;entryX=1;entryY=0;entryDx=0;entryDy=0;entryPerimeter=0;" parent="1" source="w9ujz4ej-WEvfIKI_Xtr-151" target="w9ujz4ej-WEvfIKI_Xtr-151" edge="1">
          <mxGeometry width="50" height="50" relative="1" as="geometry">
            <mxPoint x="521" y="890" as="sourcePoint" />
            <mxPoint x="560" y="890" as="targetPoint" />
            <Array as="points">
              <mxPoint x="530" y="830" />
            </Array>
          </mxGeometry>
        </mxCell>
        <mxCell id="w9ujz4ej-WEvfIKI_Xtr-154" value="" style="endArrow=classic;html=1;rounded=0;exitX=0.5;exitY=1;exitDx=0;exitDy=0;exitPerimeter=0;entryX=0;entryY=0.5;entryDx=0;entryDy=0;" parent="1" source="w9ujz4ej-WEvfIKI_Xtr-151" target="w9ujz4ej-WEvfIKI_Xtr-150" edge="1">
          <mxGeometry width="50" height="50" relative="1" as="geometry">
            <mxPoint x="531" y="900" as="sourcePoint" />
            <mxPoint x="570" y="900" as="targetPoint" />
          </mxGeometry>
        </mxCell>
        <mxCell id="w9ujz4ej-WEvfIKI_Xtr-155" value="&lt;font style=&quot;font-size: 18px;&quot;&gt;fruit&lt;/font&gt;" style="rounded=0;whiteSpace=wrap;html=1;fontColor=#000000;strokeColor=#000000;" parent="1" vertex="1">
          <mxGeometry x="550" y="960" width="90" height="40" as="geometry" />
        </mxCell>
        <mxCell id="w9ujz4ej-WEvfIKI_Xtr-156" value="&lt;font style=&quot;font-size: 18px;&quot;&gt;beverage&lt;/font&gt;" style="rounded=0;whiteSpace=wrap;html=1;fontColor=#000000;strokeColor=#000000;" parent="1" vertex="1">
          <mxGeometry x="550" y="1010" width="90" height="40" as="geometry" />
        </mxCell>
        <mxCell id="w9ujz4ej-WEvfIKI_Xtr-157" value="&lt;font style=&quot;font-size: 18px;&quot;&gt;snack&lt;/font&gt;" style="rounded=0;whiteSpace=wrap;html=1;fontColor=#000000;strokeColor=#000000;" parent="1" vertex="1">
          <mxGeometry x="550" y="1060" width="90" height="40" as="geometry" />
        </mxCell>
        <mxCell id="w9ujz4ej-WEvfIKI_Xtr-158" value="" style="strokeWidth=1;html=1;shape=mxgraph.flowchart.annotation_2;align=left;labelPosition=right;pointerEvents=1;" parent="1" vertex="1">
          <mxGeometry x="470" y="980" width="80" height="100" as="geometry" />
        </mxCell>
        <mxCell id="w9ujz4ej-WEvfIKI_Xtr-159" value="" style="endArrow=classic;html=1;rounded=0;exitX=0.513;exitY=0.5;exitDx=0;exitDy=0;exitPerimeter=0;entryX=1;entryY=0.5;entryDx=0;entryDy=0;entryPerimeter=0;" parent="1" source="w9ujz4ej-WEvfIKI_Xtr-158" target="w9ujz4ej-WEvfIKI_Xtr-158" edge="1">
          <mxGeometry width="50" height="50" relative="1" as="geometry">
            <mxPoint x="560" y="1110" as="sourcePoint" />
            <mxPoint x="610" y="1060" as="targetPoint" />
          </mxGeometry>
        </mxCell>
        <mxCell id="w9ujz4ej-WEvfIKI_Xtr-160" value="" style="endArrow=classic;html=1;rounded=0;exitX=0.5;exitY=0;exitDx=0;exitDy=0;exitPerimeter=0;entryX=1;entryY=0;entryDx=0;entryDy=0;entryPerimeter=0;" parent="1" source="w9ujz4ej-WEvfIKI_Xtr-158" target="w9ujz4ej-WEvfIKI_Xtr-158" edge="1">
          <mxGeometry width="50" height="50" relative="1" as="geometry">
            <mxPoint x="521" y="1040" as="sourcePoint" />
            <mxPoint x="560" y="1040" as="targetPoint" />
            <Array as="points">
              <mxPoint x="530" y="980" />
            </Array>
          </mxGeometry>
        </mxCell>
        <mxCell id="w9ujz4ej-WEvfIKI_Xtr-161" value="" style="endArrow=classic;html=1;rounded=0;exitX=0.5;exitY=1;exitDx=0;exitDy=0;exitPerimeter=0;entryX=0;entryY=0.5;entryDx=0;entryDy=0;" parent="1" source="w9ujz4ej-WEvfIKI_Xtr-158" target="w9ujz4ej-WEvfIKI_Xtr-157" edge="1">
          <mxGeometry width="50" height="50" relative="1" as="geometry">
            <mxPoint x="531" y="1050" as="sourcePoint" />
            <mxPoint x="570" y="1050" as="targetPoint" />
          </mxGeometry>
        </mxCell>
        <mxCell id="w9ujz4ej-WEvfIKI_Xtr-162" value="" style="strokeWidth=1;html=1;shape=mxgraph.flowchart.annotation_2;align=left;labelPosition=right;pointerEvents=1;" parent="1" vertex="1">
          <mxGeometry x="220" y="730" width="110" height="300" as="geometry" />
        </mxCell>
        <mxCell id="w9ujz4ej-WEvfIKI_Xtr-164" value="" style="endArrow=classic;html=1;rounded=0;entryX=0;entryY=0.5;entryDx=0;entryDy=0;exitX=0.5;exitY=0;exitDx=0;exitDy=0;exitPerimeter=0;" parent="1" source="w9ujz4ej-WEvfIKI_Xtr-162" target="w9ujz4ej-WEvfIKI_Xtr-132" edge="1">
          <mxGeometry width="50" height="50" relative="1" as="geometry">
            <mxPoint x="310" y="890" as="sourcePoint" />
            <mxPoint x="360" y="890" as="targetPoint" />
            <Array as="points" />
          </mxGeometry>
        </mxCell>
        <mxCell id="w9ujz4ej-WEvfIKI_Xtr-165" value="" style="endArrow=classic;html=1;rounded=0;entryX=0;entryY=0.5;entryDx=0;entryDy=0;exitX=0.5;exitY=1;exitDx=0;exitDy=0;exitPerimeter=0;" parent="1" source="w9ujz4ej-WEvfIKI_Xtr-162" target="w9ujz4ej-WEvfIKI_Xtr-134" edge="1">
          <mxGeometry width="50" height="50" relative="1" as="geometry">
            <mxPoint x="320" y="900" as="sourcePoint" />
            <mxPoint x="370" y="900" as="targetPoint" />
            <Array as="points" />
          </mxGeometry>
        </mxCell>
        <mxCell id="w9ujz4ej-WEvfIKI_Xtr-170" value="" style="endArrow=classic;html=1;rounded=0;entryX=0;entryY=0.5;entryDx=0;entryDy=0;" parent="1" target="w9ujz4ej-WEvfIKI_Xtr-133" edge="1">
          <mxGeometry width="50" height="50" relative="1" as="geometry">
            <mxPoint x="278" y="880" as="sourcePoint" />
            <mxPoint x="610" y="780" as="targetPoint" />
          </mxGeometry>
        </mxCell>
        <mxCell id="w9ujz4ej-WEvfIKI_Xtr-171" value="&lt;font style=&quot;font-size: 18px;&quot;&gt;subclass&lt;/font&gt;" style="text;html=1;align=center;verticalAlign=middle;whiteSpace=wrap;rounded=0;" parent="1" vertex="1">
          <mxGeometry x="280" y="700" width="60" height="30" as="geometry" />
        </mxCell>
        <mxCell id="w9ujz4ej-WEvfIKI_Xtr-173" value="&lt;font style=&quot;font-size: 18px;&quot;&gt;subclass&lt;/font&gt;" style="text;html=1;align=center;verticalAlign=middle;whiteSpace=wrap;rounded=0;" parent="1" vertex="1">
          <mxGeometry x="280" y="850" width="60" height="30" as="geometry" />
        </mxCell>
        <mxCell id="w9ujz4ej-WEvfIKI_Xtr-174" value="&lt;font style=&quot;font-size: 18px;&quot;&gt;subclass&lt;/font&gt;" style="text;html=1;align=center;verticalAlign=middle;whiteSpace=wrap;rounded=0;" parent="1" vertex="1">
          <mxGeometry x="280" y="1030" width="60" height="30" as="geometry" />
        </mxCell>
        <mxCell id="w9ujz4ej-WEvfIKI_Xtr-175" value="&lt;font style=&quot;font-size: 18px;&quot;&gt;smart&lt;/font&gt;&lt;div&gt;&lt;font style=&quot;font-size: 18px;&quot;&gt;watch&lt;/font&gt;&lt;/div&gt;" style="rounded=0;whiteSpace=wrap;html=1;fontColor=#000000;strokeColor=#000000;" parent="1" vertex="1">
          <mxGeometry x="710" y="850" width="80" height="60" as="geometry" />
        </mxCell>
        <mxCell id="w9ujz4ej-WEvfIKI_Xtr-179" value="" style="endArrow=classic;html=1;rounded=0;exitX=0.5;exitY=0;exitDx=0;exitDy=0;" parent="1" source="w9ujz4ej-WEvfIKI_Xtr-133" edge="1">
          <mxGeometry width="50" height="50" relative="1" as="geometry">
            <mxPoint x="530" y="840" as="sourcePoint" />
            <mxPoint x="750" y="800" as="targetPoint" />
            <Array as="points">
              <mxPoint x="410" y="800" />
            </Array>
          </mxGeometry>
        </mxCell>
        <mxCell id="w9ujz4ej-WEvfIKI_Xtr-180" value="&lt;font style=&quot;font-size: 18px;&quot;&gt;multi_inheritance&lt;/font&gt;" style="text;html=1;align=center;verticalAlign=middle;whiteSpace=wrap;rounded=0;" parent="1" vertex="1">
          <mxGeometry x="790" y="730" width="60" height="30" as="geometry" />
        </mxCell>
        <mxCell id="w9ujz4ej-WEvfIKI_Xtr-181" value="" style="verticalLabelPosition=bottom;verticalAlign=top;html=1;strokeWidth=2;shape=mxgraph.arrows2.arrow;dy=0.6;dx=40;notch=0;rotation=90;" parent="1" vertex="1">
          <mxGeometry x="380" y="1140" width="90" height="35" as="geometry" />
        </mxCell>
        <mxCell id="w9ujz4ej-WEvfIKI_Xtr-183" style="edgeStyle=orthogonalEdgeStyle;rounded=0;orthogonalLoop=1;jettySize=auto;html=1;" parent="1" source="w9ujz4ej-WEvfIKI_Xtr-182" target="w9ujz4ej-WEvfIKI_Xtr-128" edge="1">
          <mxGeometry relative="1" as="geometry" />
        </mxCell>
        <mxCell id="w9ujz4ej-WEvfIKI_Xtr-182" value="&lt;font style=&quot;font-size: 18px;&quot;&gt;classification logic&lt;/font&gt;&lt;div&gt;&lt;font style=&quot;font-size: 18px;&quot;&gt;polymorphic attribute&lt;/font&gt;&lt;/div&gt;" style="rounded=0;whiteSpace=wrap;html=1;fontColor=#000000;strokeColor=#000000;" parent="1" vertex="1">
          <mxGeometry x="330" y="1220" width="200" height="60" as="geometry" />
        </mxCell>
        <mxCell id="w9ujz4ej-WEvfIKI_Xtr-186" value="&lt;font style=&quot;font-size: 18px;&quot;&gt;apply&lt;/font&gt;" style="text;html=1;align=center;verticalAlign=middle;whiteSpace=wrap;rounded=0;" parent="1" vertex="1">
          <mxGeometry x="690" y="1220" width="60" height="30" as="geometry" />
        </mxCell>
        <mxCell id="w9ujz4ej-WEvfIKI_Xtr-187" value="" style="rounded=0;whiteSpace=wrap;html=1;" parent="1" vertex="1">
          <mxGeometry x="1360" y="210" width="340" height="160" as="geometry" />
        </mxCell>
        <mxCell id="w9ujz4ej-WEvfIKI_Xtr-188" value="color meanings" style="text;html=1;align=center;verticalAlign=middle;whiteSpace=wrap;rounded=0;fontSize=18;fontStyle=1" parent="1" vertex="1">
          <mxGeometry x="1360" y="215" width="150" height="20" as="geometry" />
        </mxCell>
        <mxCell id="w9ujz4ej-WEvfIKI_Xtr-190" value="" style="rounded=1;whiteSpace=wrap;html=1;fillColor=#FF0000;strokeColor=#FF0000;" parent="1" vertex="1">
          <mxGeometry x="1440" y="242.5" width="50" height="15" as="geometry" />
        </mxCell>
        <mxCell id="w9ujz4ej-WEvfIKI_Xtr-191" value="" style="rounded=1;whiteSpace=wrap;html=1;fillColor=#007FFF;strokeColor=#007FFF;" parent="1" vertex="1">
          <mxGeometry x="1440" y="275" width="50" height="15" as="geometry" />
        </mxCell>
        <mxCell id="w9ujz4ej-WEvfIKI_Xtr-192" value="" style="rounded=1;whiteSpace=wrap;html=1;fillColor=#97D077;strokeColor=#97D077;" parent="1" vertex="1">
          <mxGeometry x="1440" y="305" width="50" height="15" as="geometry" />
        </mxCell>
        <mxCell id="w9ujz4ej-WEvfIKI_Xtr-193" value="" style="rounded=1;whiteSpace=wrap;html=1;fillColor=#000000;strokeColor=#000000;" parent="1" vertex="1">
          <mxGeometry x="1440" y="335" width="50" height="15" as="geometry" />
        </mxCell>
        <mxCell id="w9ujz4ej-WEvfIKI_Xtr-195" value="user&#39; interface (UI)" style="text;html=1;align=center;verticalAlign=middle;whiteSpace=wrap;rounded=0;fontSize=14;" parent="1" vertex="1">
          <mxGeometry x="1510" y="235" width="130" height="30" as="geometry" />
        </mxCell>
        <mxCell id="w9ujz4ej-WEvfIKI_Xtr-196" value="function/methods" style="text;html=1;align=center;verticalAlign=middle;whiteSpace=wrap;rounded=0;fontSize=14;" parent="1" vertex="1">
          <mxGeometry x="1510" y="267.5" width="130" height="30" as="geometry" />
        </mxCell>
        <mxCell id="w9ujz4ej-WEvfIKI_Xtr-197" value="data_json" style="text;html=1;align=center;verticalAlign=middle;whiteSpace=wrap;rounded=0;fontSize=14;" parent="1" vertex="1">
          <mxGeometry x="1510" y="297.5" width="130" height="30" as="geometry" />
        </mxCell>
        <mxCell id="w9ujz4ej-WEvfIKI_Xtr-198" value="understand according to the annotation content" style="text;html=1;align=center;verticalAlign=middle;whiteSpace=wrap;rounded=0;fontSize=14;" parent="1" vertex="1">
          <mxGeometry x="1510" y="335" width="160" height="30" as="geometry" />
        </mxCell>
      </root>
    </mxGraphModel>
  </diagram>
</mxfile>
